# xmcd
#
# Track frame offsets: 
#        150
#        16817
#        32025
#        54365
#        72210
#        90842
#        111000
#        133515
#        157862
#        175400
#        188050
#        206650
#        228755
#        260742
#        283935
#        305800
#
# Disc length: 4300 seconds
#
# Revision: 0
# Processed by: cddbd v1.5.1PL2 Copyright (c) Steve Scherf et al.
# Submitted via: ExactAudioCopy v0.95b2
#
DISCID=d410ca10
DTITLE=Koko Taylor - South Side Lady
DYEAR=1973
DGENRE=Blues
TTITLE0=I'm a Little Mixed Up
TTITLE1=Wonder Why
TTITLE2=What Kind Of Man Is This
TTITLE3=Black Nights
TTITLE4=Love Me To Death
TTITLE5=I Got What It Takes
TTITLE6=Big Boss Man
TTITLE7=I'm Gonna Get Lucky
TTITLE8=Twenty-Nine Ways
TTITLE9=I Love A Lover Like You
TTITLE10=What Kind Of Man Is This (Part2)
TTITLE11=Wonder Why (Part 2)
TTITLE12=Wang Dang Doodle
TTITLE13=I Got What It Takes (Part 2)
TTITLE14=Twenty-Nine Ways (Part 2) 
TTITLE15=I Got My Mojo Working
EXTD=
EXTT0=
EXTT1=
EXTT2=
EXTT3=
EXTT4=
EXTT5=
EXTT6=
EXTT7=
EXTT8=
EXTT9=
EXTT10=
EXTT11=
EXTT12=
EXTT13=
EXTT14=
EXTT15=
PLAYORDER=
